<svg width="100" height="110" viewBox="0 0 100 110" fill="none" xmlns="http://www.w3.org/2000/svg">
<path d="M30.3371 1C30.3371 0.447715 30.7848 0 31.3371 0H52.5142C53.4181 0 53.8582 1.10405 53.2021 1.72582L43.0087 11.3863C42.8095 11.5752 42.6966 11.8376 42.6966 12.1121V33.0756C42.6966 33.6278 43.1443 34.0756 43.6966 34.0756H99C99.5523 34.0756 100 34.5233 100 35.0756V44.789C100 45.3413 99.5523 45.789 99 45.789H43.6966C43.1443 45.789 42.6966 46.2367 42.6966 46.789V74.5294C42.6966 74.5354 42.6917 74.5403 42.6857 74.5403V74.5403C42.6799 74.5403 42.6751 74.5449 42.6748 74.5508C41.9741 91.8208 24.4497 106.15 1.14211 109.829C0.541431 109.924 0 109.456 0 108.848V98.9698C0 98.4834 0.350433 98.0684 0.828455 97.9785C8.31712 96.5706 14.7947 93.8479 19.733 90.3994C27.0619 85.2814 30.3371 79.1637 30.3371 73.4754V46.789C30.3371 46.2367 29.8894 45.789 29.3371 45.789H16.8696C16.8609 45.789 16.8539 45.782 16.8539 45.7733V45.7733C16.8539 45.7647 16.8469 45.7577 16.8383 45.7577H7.0033C6.0994 45.7577 5.65935 44.6536 6.31542 44.0319L16.838 34.0593C16.844 34.0536 16.8539 34.0579 16.8539 34.0661V34.0661C16.8539 34.0713 16.8581 34.0756 16.8634 34.0756H29.3371C29.8894 34.0756 30.3371 33.6278 30.3371 33.0756V1Z" fill="#F6C873"/>
<path d="M87.571 33.1071C87.6206 33.6442 88.0597 34.0725 88.5991 34.0725H98.9766C99.536 34.0725 99.9884 33.6112 99.9584 33.0525C98.9839 14.9225 81.0268 0.417068 58.8336 0.00594845C58.574 0.0011395 58.3216 0.0998607 58.1331 0.278464L47.8884 9.98765C47.2324 10.6094 47.6724 11.7135 48.5763 11.7135H58.427C75.4609 11.9423 86.5978 22.5631 87.571 33.1071Z" fill="#F6C873"/>
<path d="M61.7978 53.1782C61.7978 52.6259 62.2455 52.1782 62.7978 52.1782H71.6484C72.5523 52.1782 72.9924 53.2822 72.3363 53.904L63.4856 62.292C62.8483 62.896 61.7978 62.4442 61.7978 61.5662V53.1782Z" fill="#434343"/>
<path d="M10.5055 35.8014C11.1615 35.1796 10.7215 34.0756 9.81758 34.0756H1C0.447715 34.0756 0 34.5233 0 35.0755V43.4322C0 44.3102 1.05059 44.762 1.68788 44.158L10.5055 35.8014Z" fill="#434343"/>
</svg>
